<svg width="0" height="0" class="hidden">
  <symbol fill="none" xmlns="http://www.w3.org/2000/svg" viewBox="0 0 15 17" id="envelope">
    <g clip-path="url(#clip0_3_1787)">
      <path d="M13.1688 2.27148H1.83426C0.822471 2.27148 0 3.14133 0 4.2114V12.4044C0 13.4744 0.822471 14.3443 1.83426 14.3443H13.1657C14.1775 14.3443 15 13.4744 15 12.4044V4.21468C15.0031 3.14461 14.1806 2.27148 13.1688 2.27148ZM14.1651 12.4044C14.1651 12.9853 13.7182 13.458 13.1688 13.458H1.83426C1.28492 13.458 0.837989 12.9853 0.837989 12.4044V4.21468C0.837989 3.63369 1.28492 3.16102 1.83426 3.16102H13.1657C13.7151 3.16102 14.162 3.63369 14.162 4.21468V12.4044H14.1651Z" fill="black"></path>
      <path d="M9.46006 8.20616L13.1286 4.72678C13.2993 4.56266 13.3148 4.28365 13.1596 4.09983C13.0044 3.9193 12.7406 3.90289 12.5668 4.06701L7.50786 8.86921L6.5209 7.937C6.51779 7.93372 6.51469 7.93043 6.51469 7.92715C6.49296 7.90417 6.47124 7.88448 6.44641 7.86478L2.43027 4.06373C2.25647 3.89961 1.99265 3.91602 1.83747 4.09983C1.68229 4.28365 1.69781 4.56266 1.87161 4.72678L5.58359 8.2357L1.88713 11.8956C1.71953 12.063 1.71022 12.342 1.86851 12.5226C1.95231 12.6145 2.06404 12.6637 2.17577 12.6637C2.27819 12.6637 2.38061 12.6243 2.46131 12.5455L6.21363 8.8331L7.23164 9.79486C7.31233 9.87035 7.41165 9.90646 7.51097 9.90646C7.61028 9.90646 7.7127 9.86707 7.7903 9.79157L8.83623 8.80028L12.5668 12.5488C12.6475 12.6309 12.7531 12.6703 12.8555 12.6703C12.9672 12.6703 13.0758 12.6243 13.1596 12.5324C13.3179 12.3552 13.3117 12.0729 13.1441 11.9055L9.46006 8.20616Z" fill="white"></path>
    </g>
    <defs>
      <clipPath id="clip0_3_1787">
        <rect width="15" height="15.864" fill="white" transform="translate(0 0.375854)"></rect>
      </clipPath>
    </defs>
  </symbol>
</svg>